<svg width="16" height="16" viewBox="0 0 16 16" fill="none" xmlns="http://www.w3.org/2000/svg">
<g clip-path="url(#clip0_549_8)">
<path d="M11.1529 8.8C10.3529 10.4471 8.65882 11.6235 6.68235 11.6235C3.99999 11.6235 1.74117 9.41176 1.74117 6.68235C1.74117 4 3.90588 1.74117 6.68235 1.74117C7.99999 1.74117 9.27058 2.25882 10.2118 3.2C10.7765 3.7647 11.1529 4.42352 11.3882 5.12941L12.4706 4.04705C12.1412 3.34117 11.7176 2.72941 11.1529 2.1647C9.92941 0.988231 8.32941 0.282349 6.63529 0.282349C3.15294 0.329407 0.282349 3.2 0.282349 6.68235C0.282349 10.2118 3.15294 13.0353 6.63529 13.0353C9.92941 13.0353 12.5647 10.5412 12.9412 7.48235C12.2353 8.14117 11.9529 8.8 11.1529 8.8Z" fill="black"/>
<path d="M15.153 15.1529C14.4471 15.8588 13.2706 15.8588 12.5177 15.1529L10.353 12.9882C10.8706 12.6588 11.3883 12.2823 11.8118 11.8588C12.2824 11.3882 12.6588 10.9176 12.9883 10.3529L15.153 12.5176C15.8588 13.2235 15.9059 14.4 15.153 15.1529Z" fill="black"/>
<path d="M14.7294 4.42353L13.8353 5.31765L11.3883 7.71765C11.2 7.90589 10.9177 7.90589 10.7294 7.71765L9.17649 6.16471L6.72943 8.61177C6.54119 8.8 6.25884 8.8 6.0706 8.61177L4.98825 7.52942L3.43531 9.08236C3.24708 8.84706 3.05884 8.51765 2.91766 8.2353L4.65884 6.58824C4.84707 6.40001 5.12943 6.40001 5.31766 6.58824L6.40002 7.67059L8.84707 5.22354C9.03531 5.0353 9.31766 5.0353 9.5059 5.22354L10.6353 6.35295L11.0588 6.77648L13.553 4.28236L14.0706 3.76471C14.2588 3.57648 14.5412 3.57648 14.7294 3.76471C14.9177 3.95295 14.9177 4.2353 14.7294 4.42353Z" fill="black"/>
</g>
<defs>
<clipPath id="clip0_549_8">
<rect width="16" height="16" fill="white"/>
</clipPath>
</defs>
</svg>
