<svg width="16" height="16" viewBox="0 0 16 16" fill="none" xmlns="http://www.w3.org/2000/svg">
<g clip-path="url(#clip0_536_531)">
<path d="M0.444499 10.2362H2.22217C2.46761 10.2362 2.66667 10.4351 2.66667 10.6805V15.125C2.66667 15.3705 2.46761 15.5695 2.22217 15.5695H0.444499C0.199056 15.5695 0 15.3705 0 15.125V10.6805C0 10.4351 0.199056 10.2362 0.444499 10.2362Z" fill="black"/>
<path d="M4.88886 6.68054H6.66669C6.91213 6.68054 7.11119 6.8796 7.11119 7.12504V15.125C7.11119 15.3705 6.91213 15.5695 6.66669 15.5695H4.88886C4.64341 15.5695 4.44452 15.3705 4.44452 15.125V7.12504C4.44452 6.8796 4.64341 6.68054 4.88886 6.68054Z" fill="black"/>
<path d="M9.33335 8.45837H11.1112C11.3566 8.45837 11.5555 8.65743 11.5555 8.90287V15.125C11.5555 15.3705 11.3566 15.5695 11.1112 15.5695H9.33335C9.08791 15.5695 8.88885 15.3705 8.88885 15.125V8.90287C8.88885 8.65743 9.08791 8.45837 9.33335 8.45837Z" fill="black"/>
<path d="M13.7778 5.79163H15.5555C15.8009 5.79163 16 5.99068 16 6.23612V15.125C16 15.3704 15.8009 15.5695 15.5555 15.5695H13.7778C13.5324 15.5695 13.3333 15.3704 13.3333 15.125V6.23612C13.3333 5.99068 13.5324 5.79163 13.7778 5.79163Z" fill="black"/>
<path d="M14.6667 0.458374C13.9307 0.459188 13.3341 1.0557 13.3333 1.79171C13.3351 1.93689 13.3608 2.08077 13.4095 2.21749L11.1846 3.54008C10.8926 3.23035 10.4692 3.08028 10.0474 3.13676C9.62533 3.19324 9.25651 3.44942 9.05615 3.82507L7.09375 2.85307C7.10335 2.79594 7.10905 2.73832 7.11117 2.68054C7.11214 2.14083 6.78776 1.65385 6.28939 1.44666C5.79102 1.23962 5.21696 1.35339 4.83529 1.7349C4.45345 2.11641 4.33936 2.69031 4.54622 3.18884L2.00065 5.08858C1.79883 4.9683 1.56836 4.90418 1.33333 4.90287C0.597005 4.90287 0 5.49972 0 6.23621C0 6.97254 0.597005 7.56954 1.33333 7.56954C2.06966 7.56954 2.66667 6.97254 2.66667 6.23621C2.66553 6.07573 2.63525 5.91703 2.57731 5.76746L5.14827 3.84867C5.6512 4.12911 6.27848 4.04692 6.69206 3.6462L8.92367 4.75151C9.07243 5.4141 9.69596 5.85877 10.3709 5.78357C11.0459 5.70837 11.5563 5.13757 11.5555 4.45837C11.5555 4.42452 11.548 4.39262 11.5456 4.35942L13.9655 2.92078C14.1753 3.05343 14.4183 3.12423 14.6667 3.12504C15.403 3.12504 16 2.52804 16 1.79171C16 1.05538 15.403 0.458374 14.6667 0.458374Z" fill="black"/>
</g>
<defs>
<clipPath id="clip0_536_531">
<rect width="16" height="16" fill="white"/>
</clipPath>
</defs>
</svg>
