<svg width="14" height="14" viewBox="0 0 14 14" fill="none" xmlns="http://www.w3.org/2000/svg">
<path d="M5.3958 0H1.0208C0.457901 0 0 0.457901 0 1.0208V3.6458C0 4.2088 0.457901 4.6667 1.0208 4.6667H5.3958C5.9588 4.6667 6.4167 4.2088 6.4167 3.6458V1.0208C6.4167 0.457901 5.9588 0 5.3958 0Z" fill="#070707"/>
<path d="M5.3958 5.83325H1.0208C0.457901 5.83325 0 6.29115 0 6.85416V12.9792C0 13.5421 0.457901 14 1.0208 14H5.3958C5.9588 14 6.4167 13.5421 6.4167 12.9792V6.85416C6.4167 6.29115 5.9588 5.83325 5.3958 5.83325Z" fill="#070707"/>
<path d="M12.9792 9.33325H8.60422C8.04121 9.33325 7.58331 9.79115 7.58331 10.3542V12.9792C7.58331 13.5421 8.04121 14 8.60422 14H12.9792C13.5421 14 14 13.5421 14 12.9792V10.3542C14 9.79115 13.5421 9.33325 12.9792 9.33325Z" fill="#070707"/>
<path d="M12.9792 0H8.60422C8.04121 0 7.58331 0.457901 7.58331 1.0208V7.1458C7.58331 7.7088 8.04121 8.1667 8.60422 8.1667H12.9792C13.5421 8.1667 14 7.7088 14 7.1458V1.0208C14 0.457901 13.5421 0 12.9792 0Z" fill="#070707"/>
</svg>
