<svg xmlns="http://www.w3.org/2000/svg" width="14" height="14" viewBox="0 0 14 14" fill="none">
  <g clip-path="url(#clip0_545_718)">
    <path fill-rule="evenodd" clip-rule="evenodd" d="M4.58555 7.00414C4.59421 7.00772 4.60272 7.01171 4.61114 7.01612C6.52118 8.05307 7.44491 10.0712 7.35604 13.0143C7.35517 13.0225 7.35633 13.0308 7.35942 13.0385C7.36252 13.0462 7.36745 13.053 7.37379 13.0583C7.37934 13.0645 7.38634 13.0691 7.39415 13.0718C7.40196 13.0746 7.41033 13.0753 7.4185 13.074C8.5449 12.9892 8.74645 12.4234 8.79832 12.002C8.89517 10.5386 8.84439 9.35089 8.64793 8.4716C8.64 8.43621 8.64044 8.39946 8.6492 8.36427C8.65795 8.32908 8.67479 8.29641 8.69837 8.26887C8.72196 8.24132 8.75164 8.21965 8.78506 8.20557C8.81848 8.19149 8.85472 8.1854 8.8909 8.18777C10.1783 8.27267 11.6244 8.36072 12.5096 8.33542C13.3383 8.16124 13.8417 7.88442 13.9662 7.53469C14.0756 7.22789 13.9193 6.81224 13.5021 6.29892C13.4638 6.25192 13.4454 6.19184 13.4507 6.13144C13.4559 6.07105 13.4846 6.01509 13.5305 5.97547C13.6438 5.8773 13.7299 5.75157 13.7804 5.61043C13.831 5.4693 13.8444 5.3175 13.8192 5.1697C13.794 5.02191 13.7311 4.88309 13.6367 4.76666C13.5422 4.65023 13.4194 4.56011 13.2799 4.505C13.2243 4.48311 13.1792 4.44069 13.154 4.38651C13.1287 4.33234 13.1253 4.27054 13.1443 4.21387C13.3131 3.70867 13.33 3.32014 13.1948 3.05915C13.0982 2.87272 12.9197 2.7427 12.6492 2.66124C12.6193 2.65216 12.5914 2.63714 12.5673 2.61707C12.5433 2.59701 12.5235 2.57232 12.5091 2.54445C12.4948 2.51659 12.4862 2.48613 12.4839 2.45489C12.4816 2.42364 12.4855 2.39225 12.4956 2.36257C12.5842 2.10098 12.5731 1.8159 12.4645 1.56196C12.356 1.30801 12.1575 1.10304 11.9072 0.986327L5.55275 0.925651L4.25548 1.37682V6.87385L4.58568 7.00414H4.58555ZM0 7.27025H3.78875V0.972818H0V7.27025ZM1.06094 7.00387C0.934459 7.00389 0.810812 6.96641 0.705634 6.89617C0.600456 6.82592 0.518469 6.72607 0.470043 6.60923C0.421617 6.49238 0.408925 6.36381 0.433573 6.23975C0.458222 6.1157 0.519103 6.00174 0.608518 5.91229C0.697933 5.82283 0.811866 5.7619 0.935909 5.7372C1.05995 5.7125 1.18853 5.72514 1.3054 5.77352C1.42226 5.82189 1.52215 5.90383 1.59244 6.00898C1.66273 6.11413 1.70026 6.23776 1.70029 6.36424C1.70008 6.53377 1.63266 6.6963 1.51281 6.8162C1.39296 6.9361 1.23046 7.00358 1.06094 7.00387ZM1.06094 6.19159C1.09512 6.19161 1.12853 6.20177 1.15693 6.22078C1.18534 6.23979 1.20748 6.2668 1.22053 6.29839C1.23359 6.32998 1.23699 6.36473 1.23029 6.39825C1.2236 6.43177 1.20712 6.46255 1.18293 6.4867C1.15874 6.51085 1.12793 6.52728 1.0944 6.53392C1.06087 6.54057 1.02612 6.53711 0.994557 6.524C0.962989 6.5109 0.936017 6.48872 0.917053 6.46028C0.898088 6.43185 0.887983 6.39842 0.888016 6.36424C0.888124 6.31844 0.906386 6.27455 0.9388 6.24218C0.971213 6.20982 1.01513 6.19163 1.06094 6.19159Z" fill="#CF1B1B"/>
  </g>
  <defs>
    <clipPath id="clip0_545_718">
      <rect width="14" height="14" fill="white" transform="matrix(1 0 0 -1 0 14)"/>
    </clipPath>
  </defs>
</svg>