<svg xmlns="http://www.w3.org/2000/svg" width="14" height="14" viewBox="0 0 14 14" fill="none">
  <g clip-path="url(#clip0_545_672)">
    <path fill-rule="evenodd" clip-rule="evenodd" d="M4.58555 6.99592C4.59421 6.99234 4.60272 6.98835 4.61114 6.98395C6.52118 5.94699 7.44491 3.92891 7.35604 0.985766C7.35517 0.977535 7.35633 0.969216 7.35942 0.961539C7.36252 0.953863 7.36745 0.947064 7.37379 0.941742C7.37934 0.935608 7.38634 0.930959 7.39415 0.928218C7.40196 0.925477 7.41033 0.924731 7.4185 0.926047C8.5449 1.01081 8.74645 1.57669 8.79832 1.99809C8.89517 3.46144 8.84439 4.64917 8.64793 5.52847C8.64 5.56385 8.64044 5.6006 8.6492 5.63579C8.65795 5.67098 8.67479 5.70365 8.69837 5.73119C8.72196 5.75874 8.75164 5.78042 8.78506 5.79449C8.81848 5.80857 8.85472 5.81466 8.8909 5.81229C10.1783 5.72739 11.6244 5.63934 12.5096 5.66464C13.3383 5.83882 13.8417 6.11564 13.9662 6.46537C14.0756 6.77217 13.9193 7.18782 13.5021 7.70115C13.4638 7.74814 13.4454 7.80822 13.4507 7.86862C13.4559 7.92901 13.4846 7.98497 13.5305 8.02459C13.6438 8.12277 13.7299 8.24849 13.7804 8.38963C13.831 8.53077 13.8444 8.68256 13.8192 8.83036C13.794 8.97815 13.7311 9.11697 13.6367 9.2334C13.5422 9.34983 13.4194 9.43995 13.2799 9.49506C13.2243 9.51696 13.1792 9.55937 13.154 9.61355C13.1287 9.66772 13.1253 9.72952 13.1443 9.78619C13.3131 10.2914 13.33 10.6799 13.1948 10.9409C13.0982 11.1273 12.9197 11.2574 12.6492 11.3388C12.6193 11.3479 12.5914 11.3629 12.5673 11.383C12.5433 11.4031 12.5235 11.4277 12.5091 11.4556C12.4948 11.4835 12.4862 11.5139 12.4839 11.5452C12.4816 11.5764 12.4855 11.6078 12.4956 11.6375C12.5842 11.8991 12.5731 12.1842 12.4645 12.4381C12.356 12.6921 12.1575 12.897 11.9072 13.0137L5.55275 13.0744L4.25548 12.6232V7.12622L4.58568 6.99592H4.58555ZM0 6.72981H3.78875V13.0272H0V6.72981ZM1.06094 6.9962C0.934459 6.99617 0.810812 7.03365 0.705634 7.10389C0.600456 7.17414 0.518469 7.27399 0.470043 7.39084C0.421617 7.50768 0.408925 7.63625 0.433573 7.76031C0.458222 7.88436 0.519103 7.99832 0.608518 8.08777C0.697933 8.17723 0.811866 8.23816 0.935909 8.26286C1.05995 8.28756 1.18853 8.27492 1.3054 8.22655C1.42226 8.17817 1.52215 8.09623 1.59244 7.99108C1.66273 7.88593 1.70026 7.7623 1.70029 7.63582C1.70008 7.46629 1.63266 7.30376 1.51281 7.18387C1.39296 7.06397 1.23046 6.99648 1.06094 6.9962ZM1.06094 7.80847C1.09512 7.80845 1.12853 7.79829 1.15693 7.77928C1.18534 7.76027 1.20748 7.73326 1.22053 7.70167C1.23359 7.67009 1.23699 7.63533 1.23029 7.60182C1.2236 7.5683 1.20712 7.53751 1.18293 7.51336C1.15874 7.48921 1.12793 7.47278 1.0944 7.46614C1.06087 7.4595 1.02612 7.46295 0.994557 7.47606C0.962989 7.48916 0.936017 7.51134 0.917053 7.53978C0.898088 7.56822 0.887983 7.60164 0.888016 7.63582C0.888124 7.68162 0.906386 7.72552 0.9388 7.75788C0.971213 7.79024 1.01513 7.80843 1.06094 7.80847Z" fill="#5EAC24"/>
  </g>
  <defs>
    <clipPath id="clip0_545_672">
      <rect width="14" height="14" fill="white"/>
    </clipPath>
  </defs>
</svg>