<svg xmlns="http://www.w3.org/2000/svg" width="12" height="13" viewBox="0 0 12 13" fill="none">
  <path d="M3.67 6.73888C3.6624 6.73888 3.6548 6.73861 3.64711 6.73815L0.343319 6.53188C0.217617 6.5241 0.104823 6.45223 0.0445812 6.34173C-0.0155693 6.23122 -0.0148369 6.09747 0.0466869 5.9876C0.0639905 5.95666 0.480375 5.2225 1.27332 4.58218C2.34486 3.717 3.59053 3.43639 4.87557 3.77074C4.98223 3.79848 5.07067 3.87283 5.11645 3.97308C5.16222 4.07333 5.16039 4.18887 5.11141 4.28756L3.99803 6.53527C3.93596 6.66051 3.80843 6.73888 3.67 6.73888Z" fill="#FF5B5B"/>
  <path d="M6.33339 12.4998C6.27314 12.4998 6.2129 12.485 6.15824 12.4552C6.04774 12.3949 5.97587 12.2822 5.968 12.1565L5.76182 8.85274C5.75266 8.70562 5.83259 8.56728 5.9647 8.50182L8.21242 7.38836C8.31121 7.33947 8.42666 7.33764 8.52691 7.38341C8.62725 7.4291 8.7015 7.51763 8.72924 7.62429C9.06369 8.90932 8.78308 10.155 7.91781 11.2265C7.27757 12.0195 6.54332 12.4358 6.51237 12.4531C6.4568 12.4843 6.39509 12.4998 6.33339 12.4998Z" fill="#FF193D"/>
  <path d="M11.4129 3.4545L9.04566 1.08731C8.95081 0.992461 8.81165 0.957121 8.68301 0.995116C7.09832 1.46387 5.79744 2.19903 4.81626 3.18011C4.61164 3.38482 4.41508 3.60666 4.23215 3.83938C3.70023 4.51568 3.25592 5.31531 2.91168 6.21609C2.69241 6.79022 2.51388 7.40527 2.38104 8.04413C2.14904 9.16006 2.13659 9.95987 2.13614 9.99337C2.13494 10.092 2.17358 10.187 2.24334 10.2568C2.31201 10.3254 2.40521 10.364 2.50226 10.364H2.50674C2.54034 10.3636 3.34015 10.3512 4.456 10.1192C5.09486 9.98633 5.70992 9.8078 6.28414 9.58844C7.18484 9.2442 7.98446 8.79998 8.66058 8.26816C8.8935 8.08514 9.11533 7.88858 9.32004 7.68387C10.3012 6.7027 11.0364 5.40182 11.5051 3.81714C11.5431 3.68851 11.5077 3.54935 11.4129 3.4545Z" fill="#E1F1FA"/>
  <path d="M4.70611 9.56754L2.93254 7.79398C2.80162 7.66306 2.59352 7.65051 2.44776 7.76477C2.33451 7.85358 2.22675 7.94898 2.12751 8.04822C0.893464 9.28226 0.855286 11.1943 0.854279 11.2751C0.852997 11.3738 0.891633 11.4688 0.961488 11.5386C1.03015 11.6073 1.12326 11.6459 1.22031 11.6459C1.22187 11.6459 1.22342 11.6459 1.22498 11.6458C1.30573 11.6448 3.21791 11.6066 4.45186 10.3726C4.55111 10.2733 4.64651 10.1656 4.73531 10.0523C4.84957 9.90656 4.83703 9.69846 4.70611 9.56754Z" fill="#FFF261"/>
  <path d="M2.93992 6.14294L1.85181 7.23114C1.78314 7.29971 1.74451 7.39282 1.74451 7.48996C1.74451 7.58701 1.78314 7.68011 1.85181 7.74878L4.75139 10.6483C4.81996 10.717 4.91307 10.7556 5.01021 10.7556C5.10735 10.7556 5.20037 10.717 5.26903 10.6483L6.35714 9.56024L2.93992 6.14294Z" fill="#1B3B6B"/>
  <path d="M7.68992 5.92697C7.39164 5.92697 7.11112 5.81079 6.90018 5.59985C6.46475 5.16443 6.46475 4.45599 6.90018 4.02048C7.11112 3.80954 7.39164 3.69336 7.68992 3.69336C7.9882 3.69336 8.26872 3.80954 8.47965 4.02048C8.69059 4.23141 8.80677 4.51184 8.80677 4.81021C8.80677 5.10849 8.69059 5.38892 8.47965 5.59985C8.26872 5.81079 7.9882 5.92697 7.68992 5.92697Z" fill="#06CCAB"/>
  <path d="M7.6899 6.28485C7.29594 6.28485 6.92561 6.13141 6.6471 5.8529C6.07206 5.27786 6.07206 4.34219 6.6471 3.76715C6.92561 3.48865 7.29603 3.33521 7.6899 3.33521C8.08385 3.33521 8.45418 3.48865 8.73278 3.76715C9.01138 4.04575 9.16473 4.41608 9.16473 4.81003C9.16473 5.20398 9.01138 5.57431 8.73278 5.8529C8.45418 6.13141 8.08385 6.28485 7.6899 6.28485ZM7.6899 4.06735C7.49159 4.06735 7.30501 4.14462 7.16475 4.28488C6.87526 4.57446 6.87526 5.04559 7.16475 5.33517C7.30501 5.47543 7.49159 5.5527 7.6899 5.5527C7.88829 5.5527 8.07479 5.47543 8.21505 5.33517C8.35531 5.19492 8.43258 5.00842 8.43258 4.81003C8.43258 4.61163 8.35531 4.42514 8.21505 4.28488C8.07479 4.14462 7.88829 4.06735 7.6899 4.06735Z" fill="#1B3B6B"/>
  <path d="M11.8929 0.607276C11.8231 0.537421 11.7275 0.498145 11.6293 0.500067C11.5751 0.500708 10.281 0.522498 8.68298 0.995093L11.505 3.81711C11.9776 2.21915 11.9994 0.925055 12 0.870764C12.0013 0.77207 11.9627 0.677039 11.8929 0.607276Z" fill="#FF5B5B"/>
  <path d="M11.4127 3.45447L10.2291 2.27087L2.24316 10.2567C2.31183 10.3254 2.40494 10.3639 2.50199 10.3639H2.50656C2.54007 10.3636 3.33988 10.3511 4.45582 10.1191C5.09468 9.9863 5.70964 9.80777 6.28387 9.58841C7.18466 9.24417 7.98428 8.79996 8.6604 8.26813C8.89322 8.08511 9.11515 7.88855 9.31977 7.68384C10.3009 6.70267 11.0361 5.40179 11.5048 3.81711C11.543 3.68848 11.5075 3.54932 11.4127 3.45447Z" fill="#CDEBFC"/>
  <path d="M4.70601 9.56757L3.81923 8.68079L0.961304 11.5386V11.5387C1.03006 11.6074 1.12317 11.6459 1.22022 11.6459H1.22479C1.30564 11.6449 3.21772 11.6066 4.45177 10.3726C4.55101 10.2733 4.64641 10.1656 4.73513 10.0523C4.84948 9.90659 4.83703 9.69849 4.70601 9.56757Z" fill="#FDBF00"/>
  <path d="M4.64854 7.85144L3.30151 9.19846L4.75135 10.6483C4.81992 10.7169 4.91303 10.7555 5.01017 10.7555C5.10731 10.7555 5.20033 10.7169 5.26899 10.6483L6.3571 9.56009L4.64854 7.85144Z" fill="#001035"/>
  <path d="M8.4795 4.02039C8.47941 4.02039 8.47941 4.02039 8.47941 4.02039L6.90002 5.59976H6.90012C7.11096 5.8107 7.39148 5.92688 7.68976 5.92688C7.98804 5.92688 8.26856 5.8107 8.4795 5.59976C8.69044 5.38882 8.80662 5.1084 8.80662 4.81012C8.80653 4.51184 8.69044 4.23132 8.4795 4.02039Z" fill="#1CADB5"/>
  <path d="M8.73274 3.76709L8.215 4.28482C8.35526 4.42508 8.43254 4.61157 8.43254 4.80997C8.43254 5.00836 8.35526 5.19485 8.215 5.33511C8.07475 5.47537 7.88825 5.55264 7.68986 5.55264C7.49146 5.55264 7.30497 5.47537 7.16471 5.33511C7.16471 5.33511 7.16471 5.33511 7.16471 5.33502L6.64697 5.85275V5.85284C6.92557 6.13135 7.2959 6.28479 7.68986 6.28479C8.08381 6.28479 8.45414 6.13135 8.73274 5.85284C9.01124 5.57425 9.16469 5.20392 9.16469 4.80997C9.16469 4.41602 9.01124 4.04568 8.73274 3.76709Z" fill="#001035"/>
  <path d="M11.8928 0.607178L10.094 2.4061L11.505 3.81711C11.9776 2.21915 11.9994 0.925049 12 0.870758C12.0013 0.772064 11.9627 0.677032 11.8928 0.607178Z" fill="#FF193D"/>
</svg>