<svg width="21" height="16" viewBox="0 0 21 16" fill="none" xmlns="http://www.w3.org/2000/svg">
<path d="M13.1071 8.17969L14.2999 6.96802C14.3866 7.29786 14.4375 7.64269 14.4375 8.00002C14.4375 10.2057 12.6712 12 10.5 12C10.1482 12 9.8088 11.9483 9.48413 11.8602L10.6769 10.6485C11.981 10.5582 13.0182 9.50452 13.1071 8.17969ZM20.9173 7.67619C20.8366 7.52869 19.6918 5.49086 17.454 3.76387L16.4989 4.73403C18.1307 5.95286 19.1646 7.37436 19.5717 8.00102C18.7939 9.20418 15.7426 13.3333 10.5 13.3333C9.71381 13.3333 8.98275 13.2312 8.29484 13.0682L7.21645 14.1637C8.20788 14.4725 9.29759 14.6667 10.5 14.6667C17.3698 14.6667 20.7757 8.58269 20.9173 8.32385C21.0276 8.12235 21.0276 7.87769 20.9173 7.67619ZM18.1827 1.13804L3.74522 15.8047C3.61709 15.9348 3.44909 16 3.28125 16C3.11341 16 2.94541 15.9348 2.81728 15.8047C2.56085 15.5442 2.56085 15.1223 2.81728 14.862L4.65413 12.996C1.68459 11.1748 0.175711 8.49402 0.0826875 8.32385C-0.0275625 8.12235 -0.0275625 7.87752 0.0826875 7.67602C0.224273 7.41736 3.63021 1.33337 10.5 1.33337C12.2763 1.33337 13.8149 1.74504 15.1302 2.3537L17.2548 0.195374C17.5112 -0.0651248 17.9265 -0.0651248 18.1827 0.195374C18.439 0.455874 18.4391 0.877706 18.1827 1.13804ZM5.63276 12.0018C5.63276 12.0018 7.7531 10.968 7.29422 10.314C6.83534 9.66002 6.5625 8.86252 6.5625 8.00002C6.5625 5.79436 8.3288 4.00003 10.5 4.00003C11.349 4.00003 12.1341 4.2772 12.7778 4.7432L14.1214 3.37837C13.0599 2.94653 11.8537 2.6667 10.5 2.6667C5.25738 2.6667 2.20615 6.79586 1.42849 7.99902C1.92232 8.75935 3.34179 10.684 5.63276 12.0018ZM8.24693 9.34602L11.825 5.71119C11.4347 5.47703 10.9853 5.33336 10.5 5.33336C9.05264 5.33336 7.875 6.52969 7.875 8.00002C7.875 8.49302 8.01642 8.94952 8.24693 9.34602Z" fill="#969696"/>
</svg>
