<svg width="21" height="14" viewBox="0 0 21 14" fill="none" xmlns="http://www.w3.org/2000/svg">
<path d="M20.8666 6.28386C20.6789 6.02722 16.2089 0 10.4999 0C4.79089 0 0.320661 6.02722 0.13326 6.28361C-0.04442 6.52708 -0.04442 6.8573 0.13326 7.10077C0.320661 7.3574 4.79089 13.3846 10.4999 13.3846C16.2089 13.3846 20.6789 7.35736 20.8666 7.10097C21.0445 6.85755 21.0445 6.52708 20.8666 6.28386ZM10.4999 12C6.2946 12 2.65237 7.99963 1.57418 6.69184C2.65097 5.38291 6.28558 1.38461 10.4999 1.38461C14.705 1.38461 18.347 5.3843 19.4256 6.69278C18.3488 8.00168 14.7142 12 10.4999 12Z" fill="#969696"/>
<path d="M10.4996 2.53845C8.20917 2.53845 6.3457 4.40192 6.3457 6.69232C6.3457 8.98272 8.20917 10.8462 10.4996 10.8462C12.79 10.8462 14.6534 8.98272 14.6534 6.69232C14.6534 4.40192 12.79 2.53845 10.4996 2.53845ZM10.4996 9.46154C8.97256 9.46154 7.73035 8.2193 7.73035 6.69232C7.73035 5.16535 8.9726 3.9231 10.4996 3.9231C12.0265 3.9231 13.2688 5.16535 13.2688 6.69232C13.2688 8.2193 12.0266 9.46154 10.4996 9.46154Z" fill="#969696"/>
</svg>
