<svg width="380" height="200" viewBox="0 0 380 200" fill="none" xmlns="http://www.w3.org/2000/svg">
<path d="M316.214 0.295532H64.1869C61.4861 0.295532 59.2966 2.48496 59.2966 5.18576V194.813C59.2966 197.514 61.4861 199.703 64.1869 199.703H316.214C318.915 199.703 321.104 197.514 321.104 194.813V5.18576C321.104 2.48496 318.915 0.295532 316.214 0.295532Z" fill="#F1F4F2"/>
<path d="M316.214 200H64.1856C61.327 200 59 197.674 59 194.814V5.18563C59 2.32696 61.3256 0 64.1856 0H316.212C319.071 0 321.398 2.32561 321.398 5.18563V194.814C321.398 197.673 319.073 200 316.212 200H316.214ZM64.1856 0.590802C61.6519 0.590802 59.5908 2.6519 59.5908 5.18563V194.814C59.5908 197.348 61.6519 199.409 64.1856 199.409H316.212C318.746 199.409 320.807 197.348 320.807 194.814V5.18563C320.807 2.6519 318.746 0.590802 316.212 0.590802H64.1856Z" fill="black"/>
<path d="M86.5408 14.3417C88.2449 14.3417 89.6264 12.9585 89.6264 11.2521C89.6264 9.54575 88.2449 8.16248 86.5408 8.16248C84.8367 8.16248 83.4552 9.54575 83.4552 11.2521C83.4552 12.9585 84.8367 14.3417 86.5408 14.3417Z" fill="white"/>
<path d="M95.5437 14.3417C97.2479 14.3417 98.6293 12.9585 98.6293 11.2521C98.6293 9.54575 97.2479 8.16248 95.5437 8.16248C93.8396 8.16248 92.4581 9.54575 92.4581 11.2521C92.4581 12.9585 93.8396 14.3417 95.5437 14.3417Z" fill="#D7D7D7"/>
<path d="M104.547 14.3417C106.251 14.3417 107.632 12.9585 107.632 11.2521C107.632 9.54575 106.251 8.16248 104.547 8.16248C102.843 8.16248 101.461 9.54575 101.461 11.2521C101.461 12.9585 102.843 14.3417 104.547 14.3417Z" fill="#D7D7D7"/>
<path d="M248.15 8.65784H134.746C133.26 8.65784 132.054 9.86317 132.054 11.35V12.2228C132.054 13.7096 133.26 14.915 134.746 14.915H248.15C249.636 14.915 250.842 13.7096 250.842 12.2228V11.35C250.842 9.86317 249.636 8.65784 248.15 8.65784Z" fill="#D7D7D7"/>
<path d="M314.592 193.653H65.8064C65.6426 193.653 65.511 193.521 65.511 193.358V21.9846C65.511 21.8208 65.6426 21.6892 65.8064 21.6892H314.592C314.756 21.6892 314.887 21.8221 314.887 21.9846V193.356C314.887 193.52 314.754 193.652 314.592 193.652V193.653ZM66.1018 193.061H314.296V22.2814H66.1018V193.062V193.061Z" fill="black"/>
<path d="M83.3602 36.0361H100.12C100.916 36.0361 101.564 36.6833 101.564 37.4796V40.114C101.564 40.9103 100.916 41.5574 100.12 41.5574H83.3602C82.5639 41.5574 81.9167 40.9103 81.9167 40.114V37.4796C81.9167 36.6833 82.5639 36.0361 83.3602 36.0361Z" fill="#D7D7D7"/>
<path d="M99.9214 48.9923H83.1615C82.3643 48.9923 81.718 49.6386 81.718 50.4357V53.0688C81.718 53.866 82.3643 54.5123 83.1615 54.5123H99.9214C100.719 54.5123 101.365 53.866 101.365 53.0688V50.4357C101.365 49.6386 100.719 48.9923 99.9214 48.9923Z" fill="white"/>
<path d="M83.1615 60.7694H99.9214C100.718 60.7694 101.365 61.4166 101.365 62.2128V64.8473C101.365 65.6435 100.718 66.2907 99.9214 66.2907H83.1615C82.3652 66.2907 81.718 65.6435 81.718 64.8473V62.2128C81.718 61.4166 82.3652 60.7694 83.1615 60.7694Z" fill="#D7D7D7"/>
<path d="M152.889 36.0361H113.457C112.66 36.0361 112.014 36.6824 112.014 37.4796V40.1127C112.014 40.9099 112.66 41.5561 113.457 41.5561H152.889C153.686 41.5561 154.333 40.9099 154.333 40.1127V37.4796C154.333 36.6824 153.686 36.0361 152.889 36.0361Z" fill="#D7D7D7"/>
<path d="M129.221 48.9923H113.26C112.463 48.9923 111.817 49.6386 111.817 50.4357V53.0688C111.817 53.866 112.463 54.5123 113.26 54.5123H129.221C130.018 54.5123 130.664 53.866 130.664 53.0688V50.4357C130.664 49.6386 130.018 48.9923 129.221 48.9923Z" fill="#D7D7D7"/>
<path d="M138.619 60.7694H113.26C112.463 60.7694 111.817 61.4157 111.817 62.2128V64.8459C111.817 65.6431 112.463 66.2894 113.26 66.2894H138.619C139.416 66.2894 140.062 65.6431 140.062 64.8459V62.2128C140.062 61.4157 139.416 60.7694 138.619 60.7694Z" fill="#D7D7D7"/>
<path d="M100.12 72.7682H83.3602C82.563 72.7682 81.9167 73.4144 81.9167 74.2116V76.8447C81.9167 77.6419 82.563 78.2882 83.3602 78.2882H100.12C100.917 78.2882 101.564 77.6419 101.564 76.8447V74.2116C101.564 73.4144 100.917 72.7682 100.12 72.7682Z" fill="#D7D7D7"/>
<path d="M113.457 72.7682H171.712C172.508 72.7682 173.155 73.4154 173.155 74.2116V76.8461C173.155 77.6423 172.508 78.2895 171.712 78.2895H113.457C112.661 78.2895 112.014 77.6423 112.014 76.8461V74.213C112.014 73.4167 112.661 72.7695 113.457 72.7695V72.7682Z" fill="#D7D7D7"/>
<path d="M213.001 72.7682H179.247C178.45 72.7682 177.804 73.4144 177.804 74.2116V76.8447C177.804 77.6419 178.45 78.2882 179.247 78.2882H213.001C213.798 78.2882 214.444 77.6419 214.444 76.8447V74.2116C214.444 73.4144 213.798 72.7682 213.001 72.7682Z" fill="#D7D7D7"/>
<path d="M213.001 36.0361H160.038C159.241 36.0361 158.595 36.6824 158.595 37.4796V40.1127C158.595 40.9099 159.241 41.5561 160.038 41.5561H213.001C213.798 41.5561 214.444 40.9099 214.444 40.1127V37.4796C214.444 36.6824 213.798 36.0361 213.001 36.0361Z" fill="#D7D7D7"/>
<path d="M185.46 48.9923H136.756C135.959 48.9923 135.313 49.6386 135.313 50.4357V53.0688C135.313 53.866 135.959 54.5123 136.756 54.5123H185.46C186.257 54.5123 186.903 53.866 186.903 53.0688V50.4357C186.903 49.6386 186.257 48.9923 185.46 48.9923Z" fill="#D7D7D7"/>
<path d="M197.359 60.7694H146.154C145.357 60.7694 144.711 61.4157 144.711 62.2128V64.8459C144.711 65.6431 145.357 66.2894 146.154 66.2894H197.359C198.157 66.2894 198.803 65.6431 198.803 64.8459V62.2128C198.803 61.4157 198.157 60.7694 197.359 60.7694Z" fill="#D7D7D7"/>
<path d="M100.318 84.9211H83.5576C82.7604 84.9211 82.1141 85.5674 82.1141 86.3646V88.9977C82.1141 89.7949 82.7604 90.4411 83.5576 90.4411H100.318C101.115 90.4411 101.761 89.7949 101.761 88.9977V86.3646C101.761 85.5674 101.115 84.9211 100.318 84.9211Z" fill="white"/>
<path d="M100.495 95.6792H83.7346C82.9374 95.6792 82.2911 96.3254 82.2911 97.1226V99.7557C82.2911 100.553 82.9374 101.199 83.7346 101.199H100.495C101.292 101.199 101.938 100.553 101.938 99.7557V97.1226C101.938 96.3254 101.292 95.6792 100.495 95.6792Z" fill="#D7D7D7"/>
<path d="M171.911 84.9211H113.656C112.859 84.9211 112.213 85.5674 112.213 86.3646V88.9977C112.213 89.7949 112.859 90.4411 113.656 90.4411H171.911C172.708 90.4411 173.354 89.7949 173.354 88.9977V86.3646C173.354 85.5674 172.708 84.9211 171.911 84.9211Z" fill="#D7D7D7"/>
<path d="M139.192 95.6792H113.833C113.036 95.6792 112.39 96.3254 112.39 97.1226V99.7557C112.39 100.553 113.036 101.199 113.833 101.199H139.192C139.989 101.199 140.636 100.553 140.636 99.7557V97.1226C140.636 96.3254 139.989 95.6792 139.192 95.6792Z" fill="#D7D7D7"/>
<path d="M179.445 84.9211H213.198C213.995 84.9211 214.642 85.5683 214.642 86.3646V88.999C214.642 89.7953 213.995 90.4425 213.198 90.4425H179.445C178.648 90.4425 178.001 89.7953 178.001 88.999V86.3646C178.001 85.5683 178.648 84.9211 179.445 84.9211Z" fill="#D7D7D7"/>
<path d="M197.933 95.6792H146.728C145.93 95.6792 145.284 96.3254 145.284 97.1226V99.7557C145.284 100.553 145.93 101.199 146.728 101.199H197.933C198.73 101.199 199.376 100.553 199.376 99.7557V97.1226C199.376 96.3254 198.73 95.6792 197.933 95.6792Z" fill="#D7D7D7"/>
<path d="M89.5069 163.75H82.291V178.01H89.5069V163.75Z" fill="#D7D7D7"/>
<path d="M100.865 156.678H93.6493V178.01H100.865V156.678Z" fill="#D7D7D7"/>
<path d="M112.223 163.811H105.007V178.012H112.223V163.811Z" fill="white"/>
<path d="M123.582 148.724H116.366V178.01H123.582V148.724Z" fill="#D7D7D7"/>
<path d="M134.939 141.998H127.723V178.01H134.939V141.998Z" fill="white"/>
<path d="M146.297 146.563H139.081V178.01H146.297V146.563Z" fill="#D7D7D7"/>
<path d="M157.655 156.678H150.439V178.01H157.655V156.678Z" fill="#D7D7D7"/>
<path d="M169.013 126.256H161.797V178.01H169.013V126.256Z" fill="white"/>
<path d="M180.371 135.073H173.155V178.01H180.371V135.073Z" fill="#D7D7D7"/>
<path d="M191.728 140.719H184.512V178.012H191.728V140.719Z" fill="#D7D7D7"/>
<path d="M203.086 162.59H195.87V178.011H203.086V162.59Z" fill="#D7D7D7"/>
<path d="M214.444 143.815H207.228V178.011H214.444V143.815Z" fill="#D7D7D7"/>
<path d="M251.105 145.619C238.442 145.636 228.126 135.348 228.109 122.684C228.101 116.548 230.482 110.779 234.814 106.436C239.146 102.093 244.91 99.6962 251.044 99.6881C257.178 99.6801 262.948 102.061 267.292 106.393C271.635 110.725 274.031 116.489 274.039 122.623C274.039 122.79 274.038 122.954 274.035 123.12C273.786 135.554 263.6 145.602 251.104 145.619L251.105 145.619ZM231.041 122.636C231.055 133.727 240.061 142.737 251.117 142.722C262.173 142.706 271.156 133.671 271.143 122.581C271.129 111.491 262.123 102.48 251.066 102.496C245.711 102.503 240.678 104.602 236.896 108.406C233.217 112.106 231.149 116.988 231.045 122.195C231.042 122.342 231.041 122.489 231.041 122.636Z" fill="black"/>
<path d="M297.227 159.344C297.561 158.88 297.454 158.235 296.991 157.902L268.037 137.361L266.831 139.04L295.785 159.58C296.249 159.913 296.894 159.807 297.227 159.344Z" fill="black"/>
</svg>
