<svg width="380" height="200" viewBox="0 0 380 200" fill="none" xmlns="http://www.w3.org/2000/svg">
<path d="M37.7744 80.63H29.0084V101.059H37.7744V80.63Z" fill="#070707"/>
<path d="M54.3304 67.4208H45.5645V101.062H54.3304V67.4208Z" fill="#070707"/>
<path d="M70.8894 73.7445H62.1234V101.059H70.8894V73.7445Z" fill="#070707"/>
<path d="M87.4482 63.9093H78.6823V101.059H87.4482V63.9093Z" fill="#070707"/>
<path d="M104.007 55.4941H95.241V101.059H104.007V55.4941Z" fill="#070707"/>
<path d="M120.566 53.3837H111.8V101.062H120.566V53.3837Z" fill="#070707"/>
<path d="M213.516 86.1067H134.326V113.709H213.516V86.1067Z" fill="#DFDFE4"/>
<path d="M147.771 109.885C153.262 109.885 157.713 105.418 157.713 99.9078C157.713 94.3974 153.262 89.9303 147.771 89.9303C142.28 89.9303 137.829 94.3974 137.829 99.9078C137.829 105.418 142.28 109.885 147.771 109.885Z" fill="white"/>
<path d="M147.253 103.337C146.933 103.337 146.628 103.197 146.417 102.95L144.729 100.974C144.512 100.719 144.542 100.338 144.797 100.122C145.049 99.9051 145.433 99.9353 145.65 100.187L147.234 102.043L150.238 96.4788C150.397 96.1855 150.765 96.0758 151.058 96.2348C151.351 96.3938 151.461 96.7611 151.302 97.0544L148.221 102.759C148.048 103.079 147.73 103.29 147.368 103.329C147.33 103.334 147.292 103.334 147.253 103.334V103.337Z" fill="black"/>
<path d="M208.322 95.8045H161.817C161.482 95.8045 161.211 95.5331 161.211 95.1987C161.211 94.8643 161.482 94.5929 161.817 94.5929H208.322C208.656 94.5929 208.928 94.8643 208.928 95.1987C208.928 95.5331 208.656 95.8045 208.322 95.8045Z" fill="white"/>
<path d="M197.716 105.223H161.813C161.479 105.223 161.208 104.951 161.208 104.617C161.208 104.283 161.479 104.011 161.813 104.011H197.716C198.05 104.011 198.322 104.283 198.322 104.617C198.322 104.951 198.05 105.223 197.716 105.223Z" fill="white"/>
<path d="M185.409 100.585H161.816C161.482 100.585 161.211 100.314 161.211 99.9792C161.211 99.6448 161.482 99.3734 161.816 99.3734H185.409C185.743 99.3734 186.015 99.6448 186.015 99.9792C186.015 100.314 185.743 100.585 185.409 100.585Z" fill="white"/>
<path d="M213.516 126.211H134.326V153.814H213.516V126.211Z" fill="#DFDFE4"/>
<path d="M147.771 149.99C153.262 149.99 157.713 145.523 157.713 140.013C157.713 134.502 153.262 130.035 147.771 130.035C142.28 130.035 137.829 134.502 137.829 140.013C137.829 145.523 142.28 149.99 147.771 149.99Z" fill="white"/>
<path d="M147.253 143.445C146.933 143.445 146.628 143.305 146.417 143.058L144.729 141.082C144.512 140.827 144.542 140.446 144.797 140.229C145.049 140.013 145.433 140.043 145.65 140.295L147.234 142.151L150.238 136.586C150.397 136.293 150.765 136.183 151.058 136.342C151.351 136.501 151.461 136.869 151.302 137.162L148.221 142.866C148.048 143.187 147.73 143.398 147.368 143.436C147.33 143.442 147.292 143.442 147.253 143.442V143.445Z" fill="black"/>
<path d="M208.322 135.909H161.817C161.482 135.909 161.211 135.638 161.211 135.304C161.211 134.969 161.482 134.698 161.817 134.698H208.322C208.656 134.698 208.928 134.969 208.928 135.304C208.928 135.638 208.656 135.909 208.322 135.909Z" fill="white"/>
<path d="M197.716 145.328H161.813C161.479 145.328 161.208 145.056 161.208 144.722C161.208 144.388 161.479 144.116 161.813 144.116H197.716C198.05 144.116 198.322 144.388 198.322 144.722C198.322 145.056 198.05 145.328 197.716 145.328Z" fill="white"/>
<path d="M185.409 140.69H161.816C161.482 140.69 161.211 140.418 161.211 140.084C161.211 139.75 161.482 139.478 161.816 139.478H185.409C185.743 139.478 186.015 139.75 186.015 140.084C186.015 140.418 185.743 140.69 185.409 140.69Z" fill="white"/>
<path d="M213.516 46.002H134.326V73.6046H213.516V46.002Z" fill="#DFDFE4"/>
<path d="M147.771 69.7806C153.262 69.7806 157.713 65.3135 157.713 59.8031C157.713 54.2927 153.262 49.8256 147.771 49.8256C142.28 49.8256 137.829 54.2927 137.829 59.8031C137.829 65.3135 142.28 69.7806 147.771 69.7806Z" fill="white"/>
<path d="M147.253 63.2322C146.933 63.2322 146.628 63.0924 146.417 62.8457L144.729 60.8694C144.512 60.6145 144.542 60.2335 144.797 60.0169C145.049 59.8004 145.433 59.8305 145.65 60.0827L147.234 61.9384L150.238 56.374C150.397 56.0807 150.765 55.9711 151.058 56.1301C151.351 56.2891 151.461 56.6564 151.302 56.9497L148.221 62.6539C148.048 62.9746 147.73 63.1856 147.368 63.224C147.33 63.2295 147.292 63.2295 147.253 63.2295V63.2322Z" fill="black"/>
<path d="M188.197 55.4586H162.214C161.88 55.4586 161.608 55.1873 161.608 54.8529C161.608 54.5184 161.88 54.2471 162.214 54.2471H188.197C188.531 54.2471 188.802 54.5184 188.802 54.8529C188.802 55.1873 188.531 55.4586 188.197 55.4586Z" fill="white"/>
<path d="M208.719 60.239H162.214C161.879 60.239 161.608 59.9677 161.608 59.6333C161.608 59.2988 161.879 59.0275 162.214 59.0275H208.719C209.053 59.0275 209.325 59.2988 209.325 59.6333C209.325 59.9677 209.053 60.239 208.719 60.239Z" fill="white"/>
<path d="M195.087 65.3539H162.211C161.877 65.3539 161.605 65.0825 161.605 64.7481C161.605 64.4137 161.877 64.1423 162.211 64.1423H195.087C195.422 64.1423 195.693 64.4137 195.693 64.7481C195.693 65.0825 195.422 65.3539 195.087 65.3539Z" fill="white"/>
<path d="M120.952 114.718H29.7868C29.4524 114.718 29.181 114.447 29.181 114.112C29.181 113.778 29.4524 113.506 29.7868 113.506H120.952C121.287 113.506 121.558 113.778 121.558 114.112C121.558 114.447 121.287 114.718 120.952 114.718Z" fill="black"/>
<path d="M100.167 139.254H29.7869C29.4525 139.254 29.1812 138.982 29.1812 138.648C29.1812 138.313 29.4525 138.042 29.7869 138.042H100.167C100.501 138.042 100.773 138.313 100.773 138.648C100.773 138.982 100.501 139.254 100.167 139.254Z" fill="black"/>
<path d="M76.0372 127.173H29.7869C29.4525 127.173 29.1812 126.902 29.1812 126.568C29.1812 126.233 29.4525 125.962 29.7869 125.962H76.0372C76.3716 125.962 76.6429 126.233 76.6429 126.568C76.6429 126.902 76.3716 127.173 76.0372 127.173Z" fill="black"/>
<path d="M286.502 112.938H277.565V149.106H286.502V112.938Z" fill="#D4D0EB"/>
<path d="M304.224 124.032H295.287V149.108H304.224V124.032Z" fill="#D4D0EB"/>
<path d="M321.943 131.401H313.006V149.111H321.943V131.401Z" fill="#D9DDD2"/>
<path d="M339.665 124.032H330.729V149.108H339.665V124.032Z" fill="#D4D0EB"/>
<path d="M357.384 116.99H348.448V149.106H357.384V116.99Z" fill="#A6A8A7"/>
<path d="M336.859 102.275L317.494 84.0523L336.859 65.8292C347.553 75.8927 347.553 92.2093 336.859 102.275Z" fill="#D9DDD2"/>
<path d="M340.417 57.8063L321.052 76.0294V50.2594C328.613 50.2594 335.459 53.1441 340.417 57.8063Z" fill="#A6A8A7"/>
<path d="M317.497 84.0522L336.862 102.275C326.168 112.339 308.829 112.339 298.132 102.275C287.438 92.2118 287.438 75.8952 298.132 65.8292C303.48 60.7961 310.489 58.2822 317.497 58.2822V84.0522Z" fill="#D4D0EB"/>
<rect x="0.5" y="15.5131" width="241.319" height="168.623" rx="9.5" stroke="#555555"/>
<rect x="254.935" y="15.5131" width="124.565" height="168.623" rx="9.5" stroke="#555555"/>
</svg>
